<svg width="72" height="72" viewBox="0 0 72 72" fill="none" xmlns="http://www.w3.org/2000/svg">
<path d="M6 32.25C6 40.2065 9.16071 47.8371 14.7868 53.4632C20.4129 59.0893 28.0435 62.25 36 62.25C43.9565 62.25 51.5871 59.0893 57.2132 53.4632C62.8393 47.8371 66 40.2065 66 32.25C66 24.2935 62.8393 16.6629 57.2132 11.0368C51.5871 5.41071 43.9565 2.25 36 2.25C28.0435 2.25 20.4129 5.41071 14.7868 11.0368C9.16071 16.6629 6 24.2935 6 32.25Z" fill="#FFE500"/>
<path d="M36 2.25C30.0666 2.25 24.2664 4.00947 19.3329 7.30591C14.3994 10.6024 10.5543 15.2877 8.28363 20.7695C6.013 26.2513 5.4189 32.2833 6.57646 38.1027C7.73401 43.9221 10.5912 49.2676 14.7868 53.4632C18.9824 57.6588 24.3279 60.516 30.1473 61.6736C35.9667 62.8311 41.9987 62.237 47.4805 59.9664C52.9623 57.6958 57.6477 53.8506 60.9441 48.9171C64.2405 43.9836 66 38.1834 66 32.25C66 24.2935 62.8393 16.6629 57.2132 11.0368C51.5871 5.41071 43.9565 2.25 36 2.25ZM36 57.75C30.5858 57.75 25.2931 56.1445 20.7913 53.1365C16.2895 50.1285 12.7808 45.8531 10.7088 40.851C8.63686 35.8488 8.09475 30.3446 9.15102 25.0344C10.2073 19.7242 12.8145 14.8464 16.643 11.018C20.4714 7.18949 25.3492 4.58227 30.6594 3.526C35.9696 2.46973 41.4738 3.01185 46.476 5.0838C51.4781 7.15575 55.7535 10.6645 58.7615 15.1663C61.7695 19.6681 63.375 24.9607 63.375 30.375C63.375 37.6353 60.4909 44.5982 55.3571 49.732C50.2232 54.8659 43.2603 57.75 36 57.75Z" fill="#EBCB00"/>
<path d="M27 8.25C27 8.84674 27.9482 9.41903 29.636 9.84099C31.3239 10.2629 33.6131 10.5 36 10.5C38.3869 10.5 40.6761 10.2629 42.364 9.84099C44.0518 9.41903 45 8.84674 45 8.25C45 7.65326 44.0518 7.08097 42.364 6.65901C40.6761 6.23705 38.3869 6 36 6C33.6131 6 31.3239 6.23705 29.636 6.65901C27.9482 7.08097 27 7.65326 27 8.25Z" fill="#FFF48C"/>
<path d="M6 32.25C6 40.2065 9.16071 47.8371 14.7868 53.4632C20.4129 59.0893 28.0435 62.25 36 62.25C43.9565 62.25 51.5871 59.0893 57.2132 53.4632C62.8393 47.8371 66 40.2065 66 32.25C66 24.2935 62.8393 16.6629 57.2132 11.0368C51.5871 5.41071 43.9565 2.25 36 2.25C28.0435 2.25 20.4129 5.41071 14.7868 11.0368C9.16071 16.6629 6 24.2935 6 32.25Z" stroke="#45413C" stroke-width="0.5" stroke-linecap="round" stroke-linejoin="round"/>
<path opacity="0.15" d="M12 68.25C12 68.8467 14.5286 69.419 19.0294 69.841C23.5303 70.2629 29.6348 70.5 36 70.5C42.3652 70.5 48.4697 70.2629 52.9706 69.841C57.4714 69.419 60 68.8467 60 68.25C60 67.6533 57.4714 67.081 52.9706 66.659C48.4697 66.2371 42.3652 66 36 66C29.6348 66 23.5303 66.2371 19.0294 66.659C14.5286 67.081 12 67.6533 12 68.25Z" fill="#45413C"/>
<path d="M16.125 23.25C17.8857 23.533 19.5913 24.0898 21.18 24.9C22.7721 25.6987 24.2297 26.7413 25.5 27.99M55.875 23.25C52.3378 23.8311 49.0649 25.4859 46.5 27.99" stroke="#45413C" stroke-width="0.5" stroke-linecap="round" stroke-linejoin="round"/>
<path d="M57.75 39.75C57.75 40.995 56.07 42 54 42C51.93 42 50.25 40.995 50.25 39.75C50.25 38.505 51.93 37.5 54 37.5C56.07 37.5 57.75 38.505 57.75 39.75ZM14.25 39.75C14.25 40.995 15.93 42 18 42C20.07 42 21.75 40.995 21.75 39.75C21.75 38.505 20.07 37.5 18 37.5C15.93 37.5 14.25 38.505 14.25 39.75Z" fill="#FFAA54"/>
<path d="M28.5 47.2499C30.72 45.7666 33.33 44.9749 36 44.9749C38.67 44.9749 41.28 45.7666 43.5 47.2499" stroke="#45413C" stroke-width="0.5" stroke-linecap="round"/>
<path d="M57 30.75C57 31.4462 56.7234 32.1139 56.2312 32.6062C55.7389 33.0984 55.0712 33.375 54.375 33.375C53.6788 33.375 53.0111 33.0984 52.5188 32.6062C52.0266 32.1139 51.75 31.4462 51.75 30.75M20.25 30.75C20.25 31.4462 19.9734 32.1139 19.4812 32.6062C18.9889 33.0984 18.3212 33.375 17.625 33.375C16.9288 33.375 16.2611 33.0984 15.7688 32.6062C15.2766 32.1139 15 31.4462 15 30.75" stroke="#45413C" stroke-width="0.5" stroke-linecap="round" stroke-linejoin="round"/>
<path d="M62.5351 52.2899C62.0475 51.3692 61.2143 50.6798 60.2186 50.3732C59.2229 50.0666 58.1461 50.1679 57.2251 50.6549C56.7227 50.9252 56.287 51.3045 55.9501 51.7649L46.5001 38.9999C46.2366 38.7085 45.8829 38.5139 45.4957 38.4473C45.1085 38.3807 44.7101 38.446 44.3644 38.6326C44.0187 38.8193 43.7456 39.1166 43.5889 39.477C43.4322 39.8373 43.4009 40.2397 43.5001 40.6199L48.8251 55.6199C48.2533 55.6457 47.6946 55.7995 47.1901 56.0699C46.4162 56.6148 45.8649 57.4207 45.6376 58.3395C45.4103 59.2583 45.5222 60.2283 45.9527 61.0712C46.3833 61.914 47.1036 62.5732 47.9813 62.9276C48.859 63.2819 49.835 63.3076 50.7301 62.9999C51.6454 63.9512 52.8456 64.5785 54.1492 64.7868C55.4528 64.9951 56.7888 64.7731 57.9549 64.1544C59.1211 63.5358 60.054 62.5541 60.6125 61.3579C61.1709 60.1617 61.3246 58.8162 61.0501 57.5249C61.9253 57.0125 62.5684 56.1816 62.8452 55.206C63.1219 54.2304 63.0108 53.1855 62.5351 52.2899ZM9.46512 52.2899C9.95271 51.3692 10.7859 50.6798 11.7817 50.3732C12.7774 50.0666 13.8541 50.1679 14.7751 50.6549C15.2776 50.9252 15.7132 51.3045 16.0501 51.7649L25.5001 38.9999C25.7636 38.7085 26.1173 38.5139 26.5045 38.4473C26.8917 38.3807 27.2901 38.446 27.6358 38.6326C27.9816 38.8193 28.2546 39.1166 28.4113 39.477C28.568 39.8373 28.5993 40.2397 28.5001 40.6199L23.1901 55.4999C23.7619 55.5257 24.3207 55.6795 24.8251 55.9499C25.288 56.1833 25.7004 56.5057 26.0388 56.8985C26.3771 57.2913 26.6348 57.7469 26.7971 58.2393C26.9593 58.7316 27.023 59.2512 26.9845 59.7682C26.946 60.2852 26.806 60.7895 26.5726 61.2524C26.3392 61.7153 26.0169 62.1277 25.6241 62.4661C25.2313 62.8044 24.7757 63.0621 24.2833 63.2244C23.2889 63.5521 22.205 63.4713 21.2701 62.9999C20.3548 63.9512 19.1546 64.5785 17.851 64.7868C16.5474 64.9951 15.2115 64.7731 14.0453 64.1544C12.8791 63.5358 11.9462 62.5541 11.3878 61.3579C10.8293 60.1617 10.6757 58.8162 10.9501 57.5249C10.075 57.0125 9.43179 56.1816 9.15504 55.206C8.87829 54.2304 8.98939 53.1855 9.46512 52.2899Z" fill="white" stroke="#45413C" stroke-width="0.5" stroke-linecap="round" stroke-linejoin="round"/>
</svg>
