<svg width="72" height="73" viewBox="0 0 72 73" fill="none" xmlns="http://www.w3.org/2000/svg">
<path d="M6 32.75C6 40.7065 9.16071 48.3371 14.7868 53.9632C20.4129 59.5893 28.0435 62.75 36 62.75C43.9565 62.75 51.5871 59.5893 57.2132 53.9632C62.8393 48.3371 66 40.7065 66 32.75C66 24.7935 62.8393 17.1629 57.2132 11.5368C51.5871 5.91071 43.9565 2.75 36 2.75C28.0435 2.75 20.4129 5.91071 14.7868 11.5368C9.16071 17.1629 6 24.7935 6 32.75Z" fill="#FFE500"/>
<path d="M36 2.75C30.0666 2.75 24.2664 4.50947 19.3329 7.80591C14.3994 11.1024 10.5543 15.7877 8.28363 21.2695C6.013 26.7513 5.4189 32.7833 6.57646 38.6027C7.73401 44.4221 10.5912 49.7676 14.7868 53.9632C18.9824 58.1588 24.3279 61.016 30.1473 62.1736C35.9667 63.3311 41.9987 62.737 47.4805 60.4664C52.9623 58.1958 57.6477 54.3506 60.9441 49.4171C64.2405 44.4836 66 38.6834 66 32.75C66 24.7935 62.8393 17.1629 57.2132 11.5368C51.5871 5.91071 43.9565 2.75 36 2.75ZM36 58.25C30.5858 58.25 25.2931 56.6445 20.7913 53.6365C16.2895 50.6285 12.7808 46.3531 10.7088 41.351C8.63686 36.3488 8.09475 30.8446 9.15102 25.5344C10.2073 20.2242 12.8145 15.3464 16.643 11.518C20.4714 7.68949 25.3492 5.08227 30.6594 4.026C35.9696 2.96973 41.4738 3.51185 46.476 5.5838C51.4781 7.65575 55.7535 11.1645 58.7615 15.6663C61.7695 20.1681 63.375 25.4607 63.375 30.875C63.375 38.1353 60.4909 45.0982 55.3571 50.232C50.2232 55.3659 43.2603 58.25 36 58.25Z" fill="#EBCB00"/>
<path d="M27 8.75C27 9.34674 27.9482 9.91903 29.636 10.341C31.3239 10.7629 33.6131 11 36 11C38.3869 11 40.6761 10.7629 42.364 10.341C44.0518 9.91903 45 9.34674 45 8.75C45 8.15326 44.0518 7.58097 42.364 7.15901C40.6761 6.73705 38.3869 6.5 36 6.5C33.6131 6.5 31.3239 6.73705 29.636 7.15901C27.9482 7.58097 27 8.15326 27 8.75Z" fill="#FFF48C"/>
<path d="M6 32.75C6 40.7065 9.16071 48.3371 14.7868 53.9632C20.4129 59.5893 28.0435 62.75 36 62.75C43.9565 62.75 51.5871 59.5893 57.2132 53.9632C62.8393 48.3371 66 40.7065 66 32.75C66 24.7935 62.8393 17.1629 57.2132 11.5368C51.5871 5.91071 43.9565 2.75 36 2.75C28.0435 2.75 20.4129 5.91071 14.7868 11.5368C9.16071 17.1629 6 24.7935 6 32.75Z" stroke="#45413C" stroke-width="0.5" stroke-linecap="round" stroke-linejoin="round"/>
<path opacity="0.15" d="M12 68.75C12 69.3467 14.5286 69.919 19.0294 70.341C23.5303 70.7629 29.6348 71 36 71C42.3652 71 48.4697 70.7629 52.9706 70.341C57.4714 69.919 60 69.3467 60 68.75C60 68.1533 57.4714 67.581 52.9706 67.159C48.4697 66.7371 42.3652 66.5 36 66.5C29.6348 66.5 23.5303 66.7371 19.0294 67.159C14.5286 67.581 12 68.1533 12 68.75Z" fill="#393939"/>
<path d="M22.5 32.75C22.5 33.0467 22.412 33.3367 22.2472 33.5834C22.0824 33.83 21.8481 34.0223 21.574 34.1358C21.2999 34.2494 20.9983 34.2791 20.7074 34.2212C20.4164 34.1633 20.1491 34.0204 19.9393 33.8107C19.7296 33.6009 19.5867 33.3336 19.5288 33.0426C19.4709 32.7517 19.5006 32.4501 19.6142 32.176C19.7277 31.9019 19.92 31.6676 20.1666 31.5028C20.4133 31.338 20.7033 31.25 21 31.25C21.3978 31.25 21.7794 31.408 22.0607 31.6893C22.342 31.9706 22.5 32.3522 22.5 32.75Z" fill="#45413C" stroke="#45413C" stroke-width="0.5" stroke-linecap="round" stroke-linejoin="round"/>
<path d="M19.5 26.24C21.2607 25.957 22.9663 25.4002 24.555 24.59C26.1497 23.7956 27.608 22.7526 28.875 21.5" stroke="#45413C" stroke-width="0.5" stroke-linecap="round" stroke-linejoin="round"/>
<path d="M49.5 32.75C49.5 33.0467 49.588 33.3367 49.7528 33.5834C49.9176 33.83 50.1519 34.0223 50.426 34.1358C50.7001 34.2494 51.0017 34.2791 51.2926 34.2212C51.5836 34.1633 51.8509 34.0204 52.0607 33.8107C52.2704 33.6009 52.4133 33.3336 52.4712 33.0426C52.5291 32.7517 52.4993 32.4501 52.3858 32.176C52.2723 31.9019 52.08 31.6676 51.8334 31.5028C51.5867 31.338 51.2967 31.25 51 31.25C50.6022 31.25 50.2206 31.408 49.9393 31.6893C49.658 31.9706 49.5 32.3522 49.5 32.75Z" fill="#45413C" stroke="#45413C" stroke-width="0.5" stroke-linecap="round" stroke-linejoin="round"/>
<path d="M52.5 26.24C50.7393 25.957 49.0337 25.4002 47.445 24.59C45.8503 23.7956 44.392 22.7526 43.125 21.5" stroke="#45413C" stroke-width="0.5" stroke-linecap="round" stroke-linejoin="round"/>
<path d="M57.75 40.25C57.75 41.495 56.07 42.5 54 42.5C51.93 42.5 50.25 41.495 50.25 40.25C50.25 39.005 51.93 38 54 38C56.07 38 57.75 39.005 57.75 40.25ZM14.25 40.25C14.25 41.495 15.93 42.5 18 42.5C20.07 42.5 21.75 41.495 21.75 40.25C21.75 39.005 20.07 38 18 38C15.93 38 14.25 39.005 14.25 40.25Z" fill="#FFAA54"/>
<path d="M45.0903 54.5C45.293 54.4989 45.493 54.4541 45.6768 54.3687C45.8606 54.2833 46.0238 54.1592 46.1553 54.005C46.285 53.8475 46.3811 53.6651 46.4379 53.4691C46.4946 53.273 46.5108 53.0675 46.4853 52.865C46.0838 50.3693 44.8065 48.0982 42.8824 46.4589C40.9583 44.8196 38.5131 43.9192 35.9853 43.9192C33.4575 43.9192 31.0124 44.8196 29.0883 46.4589C27.1641 48.0982 25.8868 50.3693 25.4853 52.865C25.4599 53.0675 25.476 53.273 25.5328 53.4691C25.5895 53.6651 25.6857 53.8475 25.8153 54.005C25.9468 54.1592 26.1101 54.2833 26.2938 54.3687C26.4776 54.4541 26.6777 54.4989 26.8803 54.5H45.0903Z" fill="#FFB0CA" stroke="#45413C" stroke-width="0.5" stroke-linecap="round" stroke-linejoin="round"/>
<path d="M27.8555 47.75H44.1455C43.1386 46.5747 41.8893 45.6312 40.4834 44.9843C39.0774 44.3374 37.5481 44.0024 36.0005 44.0024C34.4528 44.0024 32.9235 44.3374 31.5176 44.9843C30.1116 45.6312 28.8623 46.5747 27.8555 47.75Z" fill="white" stroke="#45413C" stroke-width="0.5" stroke-linecap="round" stroke-linejoin="round"/>
</svg>
