<svg width="73" height="72" viewBox="0 0 73 72" fill="none" xmlns="http://www.w3.org/2000/svg">
<path d="M6.5 32.25C6.5 40.2065 9.66071 47.8371 15.2868 53.4632C20.9129 59.0893 28.5435 62.25 36.5 62.25C44.4565 62.25 52.0871 59.0893 57.7132 53.4632C63.3393 47.8371 66.5 40.2065 66.5 32.25C66.5 24.2935 63.3393 16.6629 57.7132 11.0368C52.0871 5.41071 44.4565 2.25 36.5 2.25C28.5435 2.25 20.9129 5.41071 15.2868 11.0368C9.66071 16.6629 6.5 24.2935 6.5 32.25Z" fill="#FFE500"/>
<path d="M36.5 2.25C30.5666 2.25 24.7664 4.00947 19.8329 7.30591C14.8994 10.6024 11.0543 15.2877 8.78363 20.7695C6.513 26.2513 5.9189 32.2833 7.07646 38.1027C8.23401 43.9221 11.0912 49.2676 15.2868 53.4632C19.4824 57.6588 24.8279 60.516 30.6473 61.6736C36.4667 62.8311 42.4987 62.237 47.9805 59.9664C53.4623 57.6958 58.1477 53.8506 61.4441 48.9171C64.7405 43.9836 66.5 38.1834 66.5 32.25C66.5 24.2935 63.3393 16.6629 57.7132 11.0368C52.0871 5.41071 44.4565 2.25 36.5 2.25ZM36.5 57.75C31.0858 57.75 25.7931 56.1445 21.2913 53.1365C16.7895 50.1285 13.2808 45.8531 11.2088 40.851C9.13686 35.8488 8.59475 30.3446 9.65102 25.0344C10.7073 19.7242 13.3145 14.8464 17.143 11.018C20.9714 7.18949 25.8492 4.58227 31.1594 3.526C36.4696 2.46973 41.9738 3.01185 46.976 5.0838C51.9781 7.15575 56.2535 10.6645 59.2615 15.1663C62.2695 19.6681 63.875 24.9607 63.875 30.375C63.875 37.6353 60.9909 44.5982 55.8571 49.732C50.7232 54.8659 43.7603 57.75 36.5 57.75Z" fill="#EBCB00"/>
<path d="M27.5 8.25C27.5 8.84674 28.4482 9.41903 30.136 9.84099C31.8239 10.2629 34.1131 10.5 36.5 10.5C38.8869 10.5 41.1761 10.2629 42.864 9.84099C44.5518 9.41903 45.5 8.84674 45.5 8.25C45.5 7.65326 44.5518 7.08097 42.864 6.65901C41.1761 6.23705 38.8869 6 36.5 6C34.1131 6 31.8239 6.23705 30.136 6.65901C28.4482 7.08097 27.5 7.65326 27.5 8.25Z" fill="#FFF48C"/>
<path opacity="0.15" d="M12.5 68.25C12.5 68.8467 15.0286 69.419 19.5294 69.841C24.0303 70.2629 30.1348 70.5 36.5 70.5C42.8652 70.5 48.9697 70.2629 53.4706 69.841C57.9714 69.419 60.5 68.8467 60.5 68.25C60.5 67.6533 57.9714 67.081 53.4706 66.659C48.9697 66.2371 42.8652 66 36.5 66C30.1348 66 24.0303 66.2371 19.5294 66.659C15.0286 67.081 12.5 67.6533 12.5 68.25Z" fill="#45413C"/>
<path d="M6.5 32.25C6.5 40.2065 9.66071 47.8371 15.2868 53.4632C20.9129 59.0893 28.5435 62.25 36.5 62.25C44.4565 62.25 52.0871 59.0893 57.7132 53.4632C63.3393 47.8371 66.5 40.2065 66.5 32.25C66.5 24.2935 63.3393 16.6629 57.7132 11.0368C52.0871 5.41071 44.4565 2.25 36.5 2.25C28.5435 2.25 20.9129 5.41071 15.2868 11.0368C9.66071 16.6629 6.5 24.2935 6.5 32.25Z" stroke="#45413C" stroke-width="0.5" stroke-linecap="round" stroke-linejoin="round"/>
<path d="M44 44.22C41.78 45.7033 39.17 46.495 36.5 46.495C33.83 46.495 31.22 45.7033 29 44.22" stroke="#45413C" stroke-width="0.5" stroke-linecap="round"/>
<path d="M58.25 39.75C58.25 40.995 56.57 42 54.5 42C52.43 42 50.75 40.995 50.75 39.75C50.75 38.505 52.43 37.5 54.5 37.5C56.57 37.5 58.25 38.505 58.25 39.75ZM14.75 39.75C14.75 40.995 16.43 42 18.5 42C20.57 42 22.25 40.995 22.25 39.75C22.25 38.505 20.57 37.5 18.5 37.5C16.43 37.5 14.75 38.505 14.75 39.75Z" fill="#FFAA54"/>
<path d="M57.5 30.75C57.5 31.4462 57.2234 32.1139 56.7312 32.6062C56.2389 33.0984 55.5712 33.375 54.875 33.375C54.1788 33.375 53.5111 33.0984 53.0188 32.6062C52.5266 32.1139 52.25 31.4462 52.25 30.75M20.75 30.75C20.75 31.4462 20.4734 32.1139 19.9812 32.6062C19.4889 33.0984 18.8212 33.375 18.125 33.375C17.4288 33.375 16.7611 33.0984 16.2688 32.6062C15.7766 32.1139 15.5 31.4462 15.5 30.75" stroke="#45413C" stroke-width="0.5" stroke-linecap="round" stroke-linejoin="round"/>
</svg>
