<svg width="72" height="72" viewBox="0 0 72 72" fill="none" xmlns="http://www.w3.org/2000/svg">
<path d="M0.75 32.25C0.75 40.2065 3.9107 47.8371 9.5368 53.4632C15.1629 59.0893 22.7935 62.25 30.75 62.25C38.7065 62.25 46.3371 59.0893 51.9632 53.4632C57.5893 47.8371 60.75 40.2065 60.75 32.25C60.75 24.2935 57.5893 16.6629 51.9632 11.0368C46.3371 5.4107 38.7065 2.25 30.75 2.25C22.7935 2.25 15.1629 5.4107 9.5368 11.0368C3.9107 16.6629 0.75 24.2935 0.75 32.25Z" fill="#FFE500"/>
<path d="M30.75 2.25C24.8166 2.25 19.0164 4.00947 14.0829 7.30591C9.14943 10.6024 5.30426 15.2877 3.03363 20.7695C0.762999 26.2513 0.168898 32.2833 1.32646 38.1027C2.48401 43.9221 5.34123 49.2676 9.53681 53.4632C13.7324 57.6588 19.0779 60.516 24.8973 61.6736C30.7167 62.8311 36.7487 62.237 42.2305 59.9664C47.7123 57.6958 52.3977 53.8506 55.6941 48.9171C58.9905 43.9836 60.75 38.1834 60.75 32.25C60.75 24.2935 57.5893 16.6629 51.9632 11.0368C46.3371 5.41071 38.7065 2.25 30.75 2.25ZM30.75 57.75C25.3358 57.75 20.0431 56.1445 15.5413 53.1365C11.0395 50.1285 7.53076 45.8531 5.45881 40.851C3.38686 35.8488 2.84475 30.3446 3.90102 25.0344C4.95729 19.7242 7.5645 14.8464 11.393 11.018C15.2214 7.18949 20.0992 4.58227 25.4094 3.526C30.7196 2.46973 36.2238 3.01185 41.226 5.0838C46.2281 7.15575 50.5035 10.6645 53.5115 15.1663C56.5195 19.6681 58.125 24.9607 58.125 30.375C58.125 37.6353 55.2409 44.5982 50.1071 49.732C44.9732 54.8659 38.0103 57.75 30.75 57.75Z" fill="#EBCB00"/>
<path d="M21.75 8.25C21.75 8.54547 21.9828 8.83806 22.4351 9.11104C22.8874 9.38402 23.5503 9.63206 24.386 9.84099C25.2218 10.0499 26.2139 10.2157 27.3058 10.3287C28.3978 10.4418 29.5681 10.5 30.75 10.5C31.9319 10.5 33.1022 10.4418 34.1942 10.3287C35.2861 10.2157 36.2782 10.0499 37.114 9.84099C37.9497 9.63206 38.6126 9.38402 39.0649 9.11104C39.5172 8.83806 39.75 8.54547 39.75 8.25C39.75 7.95453 39.5172 7.66194 39.0649 7.38896C38.6126 7.11598 37.9497 6.86794 37.114 6.65901C36.2782 6.45008 35.2861 6.28434 34.1942 6.17127C33.1022 6.0582 31.9319 6 30.75 6C29.5681 6 28.3978 6.0582 27.3058 6.17127C26.2139 6.28434 25.2218 6.45008 24.386 6.65901C23.5503 6.86794 22.8874 7.11598 22.4351 7.38896C21.9828 7.66194 21.75 7.95453 21.75 8.25Z" fill="#FFF48C"/>
<path opacity="0.15" d="M6.75 68.25C6.75 68.8467 9.27856 69.419 13.7794 69.841C18.2803 70.2629 24.3848 70.5 30.75 70.5C37.1152 70.5 43.2197 70.2629 47.7206 69.841C52.2214 69.419 54.75 68.8467 54.75 68.25C54.75 67.6533 52.2214 67.081 47.7206 66.659C43.2197 66.2371 37.1152 66 30.75 66C24.3848 66 18.2803 66.2371 13.7794 66.659C9.27856 67.081 6.75 67.6533 6.75 68.25Z" fill="#45413C"/>
<path d="M0.75 32.25C0.75 40.2065 3.9107 47.8371 9.5368 53.4632C15.1629 59.0893 22.7935 62.25 30.75 62.25C38.7065 62.25 46.3371 59.0893 51.9632 53.4632C57.5893 47.8371 60.75 40.2065 60.75 32.25C60.75 24.2935 57.5893 16.6629 51.9632 11.0368C46.3371 5.4107 38.7065 2.25 30.75 2.25C22.7935 2.25 15.1629 5.4107 9.5368 11.0368C3.9107 16.6629 0.75 24.2935 0.75 32.25Z" stroke="#45413C" stroke-width="0.5" stroke-linecap="round" stroke-linejoin="round"/>
<path d="M52.5 39.75C52.5 40.995 50.82 42 48.75 42C46.68 42 45 40.995 45 39.75C45 38.505 46.68 37.5 48.75 37.5C50.82 37.5 52.5 38.505 52.5 39.75ZM9 39.75C9 40.995 10.68 42 12.75 42C14.82 42 16.5 40.995 16.5 39.75C16.5 38.505 14.82 37.5 12.75 37.5C10.68 37.5 9 38.505 9 39.75Z" fill="#FFAA54"/>
<path d="M9.75 34.125C9.75 33.4288 10.0266 32.7611 10.5188 32.2688C11.0111 31.7766 11.6788 31.5 12.375 31.5C13.0712 31.5 13.7389 31.7766 14.2312 32.2688C14.7234 32.7611 15 33.4288 15 34.125M46.5 34.125C46.5 33.4288 46.7766 32.7611 47.2688 32.2688C47.7611 31.7766 48.4288 31.5 49.125 31.5C49.8212 31.5 50.4889 31.7766 50.9812 32.2688C51.4734 32.7611 51.75 33.4288 51.75 34.125" stroke="#45413C" stroke-width="0.5" stroke-linecap="round" stroke-linejoin="round"/>
<path d="M64.005 46.005L70.815 43.725C70.9404 43.6803 71.0488 43.5979 71.1255 43.4891C71.2022 43.3804 71.2433 43.2505 71.2433 43.1175C71.2433 42.9844 71.2022 42.8546 71.1255 42.7458C71.0488 42.6371 70.9404 42.5547 70.815 42.51L65.22 40.65C64.8397 40.521 64.4949 40.3045 64.2136 40.0179C63.9322 39.7313 63.722 39.3826 63.6 39L61.74 33.405C61.6941 33.2784 61.6106 33.1689 61.5007 33.0911C61.3908 33.0134 61.2597 32.9711 61.125 32.97C60.9919 32.9698 60.8621 33.0118 60.7543 33.0899C60.6465 33.1681 60.5663 33.2784 60.525 33.405L58.65 39C58.5251 39.3859 58.3104 39.7366 58.0235 40.0235C57.7367 40.3103 57.3859 40.525 57 40.65L51.405 42.51C51.2797 42.5547 51.1713 42.6371 51.0946 42.7458C51.0179 42.8546 50.9768 42.9844 50.9768 43.1175C50.9768 43.2505 51.0179 43.3804 51.0946 43.4891C51.1713 43.5979 51.2797 43.6803 51.405 43.725L57 45.6C57.3772 45.726 57.7198 45.9379 58.001 46.2191C58.2821 46.5002 58.4941 46.8429 58.62 47.22L60.495 52.815C60.5363 52.9416 60.6165 53.0519 60.7243 53.13C60.8321 53.2082 60.9619 53.2502 61.095 53.25C61.2297 53.2489 61.3608 53.2066 61.4707 53.1288C61.5806 53.0511 61.6641 52.9416 61.71 52.815L64.005 46.005ZM30.75 54.825C44.55 54.825 46.395 49.065 45.585 44.325C45.4111 43.6166 45.0876 42.9536 44.6364 42.3805C44.1851 41.8074 43.6165 41.3375 42.9687 41.0022C42.3209 40.6669 41.6088 40.4741 40.8804 40.4366C40.1519 40.3992 39.4238 40.5179 38.745 40.785C36.1679 41.6435 33.4663 42.0693 30.75 42.045C28.0338 42.0693 25.3322 41.6435 22.755 40.785C22.0762 40.5179 21.3482 40.3992 20.6197 40.4366C19.8913 40.4741 19.1792 40.6669 18.5314 41.0022C17.8836 41.3375 17.315 41.8074 16.8637 42.3805C16.4125 42.9536 16.089 43.6166 15.915 44.325C15.105 49.065 16.95 54.825 30.75 54.825Z" fill="white" stroke="#45413C" stroke-width="0.5" stroke-linecap="round" stroke-linejoin="round"/>
<path d="M45.7203 45.4199C43.5283 46.4226 41.2051 47.1095 38.8203 47.4599C36.1521 47.8896 33.4527 48.0953 30.7503 48.0749C28.0478 48.0953 25.3484 47.8896 22.6803 47.4599C20.2954 47.1095 17.9723 46.4226 15.7803 45.4199" stroke="#45413C" stroke-width="0.5" stroke-linecap="round" stroke-linejoin="round"/>
<path d="M23.6704 41.085L22.6804 47.46L21.7354 53.595M30.7504 54.825V42.075M37.8453 41.085L38.8203 47.46L39.7654 53.595" stroke="#45413C" stroke-width="0.5" stroke-linecap="round" stroke-linejoin="round"/>
</svg>
