<svg width="73" height="73" viewBox="0 0 73 73" fill="none" xmlns="http://www.w3.org/2000/svg">
<path d="M6.5 32.75C6.5 40.7065 9.66071 48.3371 15.2868 53.9632C20.9129 59.5893 28.5435 62.75 36.5 62.75C44.4565 62.75 52.0871 59.5893 57.7132 53.9632C63.3393 48.3371 66.5 40.7065 66.5 32.75C66.5 24.7935 63.3393 17.1629 57.7132 11.5368C52.0871 5.91071 44.4565 2.75 36.5 2.75C28.5435 2.75 20.9129 5.91071 15.2868 11.5368C9.66071 17.1629 6.5 24.7935 6.5 32.75Z" fill="#FFE500"/>
<path d="M36.5 2.75C30.5666 2.75 24.7664 4.50947 19.8329 7.80591C14.8994 11.1024 11.0543 15.7877 8.78363 21.2695C6.513 26.7513 5.9189 32.7833 7.07646 38.6027C8.23401 44.4221 11.0912 49.7676 15.2868 53.9632C19.4824 58.1588 24.8279 61.016 30.6473 62.1736C36.4667 63.3311 42.4987 62.737 47.9805 60.4664C53.4623 58.1958 58.1477 54.3506 61.4441 49.4171C64.7405 44.4836 66.5 38.6834 66.5 32.75C66.5 24.7935 63.3393 17.1629 57.7132 11.5368C52.0871 5.91071 44.4565 2.75 36.5 2.75ZM36.5 58.25C31.0858 58.25 25.7931 56.6445 21.2913 53.6365C16.7895 50.6285 13.2808 46.3531 11.2088 41.351C9.13686 36.3488 8.59475 30.8446 9.65102 25.5344C10.7073 20.2242 13.3145 15.3464 17.143 11.518C20.9714 7.68949 25.8492 5.08227 31.1594 4.026C36.4696 2.96973 41.9738 3.51185 46.976 5.5838C51.9781 7.65575 56.2535 11.1645 59.2615 15.6663C62.2695 20.1681 63.875 25.4607 63.875 30.875C63.875 38.1353 60.9909 45.0982 55.8571 50.232C50.7232 55.3659 43.7603 58.25 36.5 58.25Z" fill="#EBCB00"/>
<path d="M27.5 8.75C27.5 9.34674 28.4482 9.91903 30.136 10.341C31.8239 10.7629 34.1131 11 36.5 11C38.8869 11 41.1761 10.7629 42.864 10.341C44.5518 9.91903 45.5 9.34674 45.5 8.75C45.5 8.15326 44.5518 7.58097 42.864 7.15901C41.1761 6.73705 38.8869 6.5 36.5 6.5C34.1131 6.5 31.8239 6.73705 30.136 7.15901C28.4482 7.58097 27.5 8.15326 27.5 8.75Z" fill="#FFF48C"/>
<path d="M6.5 32.75C6.5 40.7065 9.66071 48.3371 15.2868 53.9632C20.9129 59.5893 28.5435 62.75 36.5 62.75C44.4565 62.75 52.0871 59.5893 57.7132 53.9632C63.3393 48.3371 66.5 40.7065 66.5 32.75C66.5 24.7935 63.3393 17.1629 57.7132 11.5368C52.0871 5.91071 44.4565 2.75 36.5 2.75C28.5435 2.75 20.9129 5.91071 15.2868 11.5368C9.66071 17.1629 6.5 24.7935 6.5 32.75Z" stroke="#45413C" stroke-width="0.5" stroke-linecap="round" stroke-linejoin="round"/>
<path opacity="0.15" d="M12.5 68.75C12.5 69.3467 15.0286 69.919 19.5294 70.341C24.0303 70.7629 30.1348 71 36.5 71C42.8652 71 48.9697 70.7629 53.4706 70.341C57.9714 69.919 60.5 69.3467 60.5 68.75C60.5 68.1533 57.9714 67.581 53.4706 67.159C48.9697 66.7371 42.8652 66.5 36.5 66.5C30.1348 66.5 24.0303 66.7371 19.5294 67.159C15.0286 67.581 12.5 68.1533 12.5 68.75Z" fill="#45413C"/>
<path d="M52.625 24.74C49.0878 24.1589 45.8149 22.5041 43.25 20M20.375 24.74C23.9122 24.1589 27.1851 22.5041 29.75 20" stroke="#45413C" stroke-width="0.5" stroke-linecap="round" stroke-linejoin="round"/>
<path d="M58.25 40.25C58.25 41.495 56.57 42.5 54.5 42.5C52.43 42.5 50.75 41.495 50.75 40.25C50.75 39.005 52.43 38 54.5 38C56.57 38 58.25 39.005 58.25 40.25ZM14.75 40.25C14.75 41.495 16.43 42.5 18.5 42.5C20.57 42.5 22.25 41.495 22.25 40.25C22.25 39.005 20.57 38 18.5 38C16.43 38 14.75 39.005 14.75 40.25Z" fill="#FFAA54"/>
<path d="M54.8903 27.5L50.0754 29.915C49.8296 30.0409 49.6235 30.2321 49.4795 30.4677C49.3355 30.7032 49.2593 30.9739 49.2593 31.25C49.2593 31.5261 49.3355 31.7968 49.4795 32.0323C49.6235 32.2679 49.8296 32.4591 50.0754 32.585L54.8903 35M18.1104 27.5L23.0004 29.915C23.2461 30.0409 23.4523 30.2321 23.5962 30.4677C23.7402 30.7032 23.8164 30.9739 23.8164 31.25C23.8164 31.5261 23.7402 31.7968 23.5962 32.0323C23.4523 32.2679 23.2461 32.4591 23.0004 32.585L18.1104 35" stroke="#45413C" stroke-width="0.5" stroke-linecap="round" stroke-linejoin="round"/>
<path d="M48.1854 54.5C48.4472 54.5007 48.7062 54.4448 48.9444 54.3361C49.1826 54.2273 49.3944 54.0683 49.5654 53.87C49.7397 53.6652 49.8675 53.425 49.94 53.1661C50.0125 52.9071 50.028 52.6355 49.9854 52.37C49.4608 49.1679 47.815 46.2566 45.3421 44.1559C42.8692 42.0552 39.7301 40.9019 36.4854 40.9019C33.2407 40.9019 30.1016 42.0552 27.6286 44.1559C25.1557 46.2566 23.51 49.1679 22.9854 52.37C22.9428 52.6355 22.9583 52.9071 23.0308 53.1661C23.1033 53.425 23.2311 53.6652 23.4054 53.87C23.5764 54.0683 23.7882 54.2273 24.0264 54.3361C24.2646 54.4448 24.5235 54.5007 24.7854 54.5C32.457 52.4986 40.5138 52.4986 48.1854 54.5Z" fill="#FFB0CA" stroke="#45413C" stroke-width="0.5" stroke-linecap="round" stroke-linejoin="round"/>
<path d="M36.4998 41.0001C32.9844 40.9866 29.5994 42.3299 27.0498 44.7501H45.9498C43.4002 42.3299 40.0152 40.9866 36.4998 41.0001Z" fill="white" stroke="#45413C" stroke-width="0.5" stroke-linecap="round" stroke-linejoin="round"/>
</svg>
