<svg width="72" height="73" viewBox="0 0 72 73" fill="none" xmlns="http://www.w3.org/2000/svg">
<path d="M6 32.75C6 40.7065 9.16071 48.3371 14.7868 53.9632C20.4129 59.5893 28.0435 62.75 36 62.75C43.9565 62.75 51.5871 59.5893 57.2132 53.9632C62.8393 48.3371 66 40.7065 66 32.75C66 24.7935 62.8393 17.1629 57.2132 11.5368C51.5871 5.91071 43.9565 2.75 36 2.75C28.0435 2.75 20.4129 5.91071 14.7868 11.5368C9.16071 17.1629 6 24.7935 6 32.75Z" fill="#FFE500"/>
<path d="M36 2.75C30.0666 2.75 24.2664 4.50947 19.3329 7.80591C14.3994 11.1024 10.5543 15.7877 8.28363 21.2695C6.013 26.7513 5.4189 32.7833 6.57646 38.6027C7.73401 44.4221 10.5912 49.7676 14.7868 53.9632C18.9824 58.1588 24.3279 61.016 30.1473 62.1736C35.9667 63.3311 41.9987 62.737 47.4805 60.4664C52.9623 58.1958 57.6477 54.3506 60.9441 49.4171C64.2405 44.4836 66 38.6834 66 32.75C66 24.7935 62.8393 17.1629 57.2132 11.5368C51.5871 5.91071 43.9565 2.75 36 2.75ZM36 58.25C30.5858 58.25 25.2931 56.6445 20.7913 53.6365C16.2895 50.6285 12.7808 46.3531 10.7088 41.351C8.63686 36.3488 8.09475 30.8446 9.15102 25.5344C10.2073 20.2242 12.8145 15.3464 16.643 11.518C20.4714 7.68949 25.3492 5.08227 30.6594 4.026C35.9696 2.96973 41.4738 3.51185 46.476 5.5838C51.4781 7.65575 55.7535 11.1645 58.7615 15.6663C61.7695 20.1681 63.375 25.4607 63.375 30.875C63.375 38.1353 60.4909 45.0982 55.3571 50.232C50.2232 55.3659 43.2603 58.25 36 58.25Z" fill="#EBCB00"/>
<path d="M27 8.75C27 9.34674 27.9482 9.91903 29.636 10.341C31.3239 10.7629 33.6131 11 36 11C38.3869 11 40.6761 10.7629 42.364 10.341C44.0518 9.91903 45 9.34674 45 8.75C45 8.15326 44.0518 7.58097 42.364 7.15901C40.6761 6.73705 38.3869 6.5 36 6.5C33.6131 6.5 31.3239 6.73705 29.636 7.15901C27.9482 7.58097 27 8.15326 27 8.75Z" fill="#FFF48C"/>
<path d="M6 32.75C6 40.7065 9.16071 48.3371 14.7868 53.9632C20.4129 59.5893 28.0435 62.75 36 62.75C43.9565 62.75 51.5871 59.5893 57.2132 53.9632C62.8393 48.3371 66 40.7065 66 32.75C66 24.7935 62.8393 17.1629 57.2132 11.5368C51.5871 5.91071 43.9565 2.75 36 2.75C28.0435 2.75 20.4129 5.91071 14.7868 11.5368C9.16071 17.1629 6 24.7935 6 32.75Z" stroke="#45413C" stroke-width="0.5" stroke-linecap="round" stroke-linejoin="round"/>
<path opacity="0.15" d="M12 68C12 68.5967 14.5286 69.169 19.0294 69.591C23.5303 70.0129 29.6348 70.25 36 70.25C42.3652 70.25 48.4697 70.0129 52.9706 69.591C57.4714 69.169 60 68.5967 60 68C60 67.4033 57.4714 66.831 52.9706 66.409C48.4697 65.9871 42.3652 65.75 36 65.75C29.6348 65.75 23.5303 65.9871 19.0294 66.409C14.5286 66.831 12 67.4033 12 68Z" fill="#191919"/>
<path d="M19.5 24.74C21.2607 24.457 22.9663 23.9002 24.555 23.09C26.1497 22.2956 27.608 21.2526 28.875 20M52.5 24.74C50.7393 24.457 49.0337 23.9002 47.445 23.09C45.8503 22.2956 44.392 21.2526 43.125 20" stroke="#45413C" stroke-width="0.5" stroke-linecap="round" stroke-linejoin="round"/>
<path d="M57.75 40.25C57.75 41.495 56.07 42.5 54 42.5C51.93 42.5 50.25 41.495 50.25 40.25C50.25 39.005 51.93 38 54 38C56.07 38 57.75 39.005 57.75 40.25ZM14.25 40.25C14.25 41.495 15.93 42.5 18 42.5C20.07 42.5 21.75 41.495 21.75 40.25C21.75 39.005 20.07 38 18 38C15.93 38 14.25 39.005 14.25 40.25Z" fill="#FFAA54"/>
<path d="M57 31.25C57 31.9462 56.7234 32.6139 56.2312 33.1062C55.7389 33.5984 55.0712 33.875 54.375 33.875C53.6788 33.875 53.0111 33.5984 52.5188 33.1062C52.0266 32.6139 51.75 31.9462 51.75 31.25M20.25 31.25C20.25 31.9462 19.9734 32.6139 19.4812 33.1062C18.9889 33.5984 18.3212 33.875 17.625 33.875C16.9288 33.875 16.2611 33.5984 15.7688 33.1062C15.2766 32.6139 15 31.9462 15 31.25M28.5 47H43.5" stroke="#45413C" stroke-width="0.5" stroke-linecap="round" stroke-linejoin="round"/>
</svg>
